<?xml version="1.0" encoding="UTF-8" standalone="no"?>
<svg
   version="1.1"
   width="1024"
   height="1024"
   id="svg4"
   sodipodi:docname="icon.svg"
   inkscape:version="1.4.3 (0d15f75042, 2025-12-25)"
   xmlns:inkscape="http://www.inkscape.org/namespaces/inkscape"
   xmlns:sodipodi="http://sodipodi.sourceforge.net/DTD/sodipodi-0.dtd"
   xmlns="http://www.w3.org/2000/svg"
   xmlns:svg="http://www.w3.org/2000/svg">
  <defs
     id="defs4" />
  <sodipodi:namedview
     id="namedview4"
     pagecolor="#ffffff"
     bordercolor="#000000"
     borderopacity="0.25"
     inkscape:showpageshadow="2"
     inkscape:pageopacity="0.0"
     inkscape:pagecheckerboard="0"
     inkscape:deskcolor="#d1d1d1"
     inkscape:zoom="0.75575672"
     inkscape:cx="510.74637"
     inkscape:cy="654.97267"
     inkscape:window-width="1512"
     inkscape:window-height="877"
     inkscape:window-x="0"
     inkscape:window-y="0"
     inkscape:window-maximized="1"
     inkscape:current-layer="svg4" />
  <path
     d="M 662.04352,5.0781258e-4 C 655.3796,-0.02971516 648.57729,1.289467 641.74929,3.8662646 593.92644,29.471125 569.4718,81.134467 548.70363,134.99132 l -3.63164,9.82068 c -6.05487,-5.22231 -9.00362,-5.80917 -18.67756,-0.11888 -22.04627,-36.09195 -46.76677,-65.094535 -80.63278,-86.036418 -47.58325,-24.925575 -83.67147,-1.57356 -92.1082,22.83568 -4.79465,18.620998 -3.97145,31.890408 3.35574,48.940658 6.74111,12.18736 14.61114,22.10608 34.20198,32.81306 l 11.76085,4.65328 c -15.05158,-0.33985 -82.70432,5.24043 -142.97862,71.98193 -65.96971,79.80358 -50.71384,165.2073 -38.99005,177.50391 7.5007,8.02967 24.66305,3.61268 31.55933,-3.92076 4.34762,-8.37725 4.64647,-13.73684 4.26374,-23.42449 -1.23583,-22.90943 0.54746,-42.21297 8.38721,-63.55211 13.38221,-32.35482 39.28705,-53.42902 67.12738,-66.32768 27.78802,-12.32843 49.98376,-19.08757 103.89843,-19.84379 4.30145,-0.059 8.60487,-0.13084 12.906,-0.21508 12.69071,-0.26704 25.38005,-0.49144 38.07187,-0.67009 l -7.36698,10.52701 c -28.30673,32.75399 -56.95589,74.25803 -59.04911,123.50804 3.5176,-7.07797 11.58936,-17.72738 17.15339,-22.3741 9.66969,-2.81835 10.93462,11.49882 16.6151,18.92399 2.62085,-19.24668 4.16797,-39.66379 12.60844,-56.77085 4.29054,-7.73279 8.6401,-15.41657 13.21208,-22.92436 5.6636,-9.01336 11.37727,-17.98198 17.16549,-26.88514 3.65834,-5.73294 7.32393,-10.98931 11.42667,-16.32312 7.72852,-0.63646 15.27595,1.82613 22.8108,3.51567 23.67201,5.32412 39.90909,8.40264 57.71994,9.28678 -3.40345,5.52738 -6.90981,10.7459 -10.7635,15.85304 -29.2728,37.46119 -84.03328,114.8625 -119.8269,273.48222 -11.0542,0.25118 -22.1082,0.51038 -33.16197,0.78515 -20.13045,0.9764 -40.32836,0.0729 -60.42782,1.77551 -2.17651,2.56049 -2.17651,2.56049 -4.21698,7.69148 l -2.31254,6.55107 c -4.07369,11.29378 -4.07369,11.29378 -6.52953,34.40657 h 93.5898 c -9.56714,39.39246 -13.36623,53.19486 -19.58857,74.25418 -20.24349,69.29346 -44.30627,140.50041 -84.88376,197.15765 -32.93284,43.77681 -75.2698,80.28055 -126.25864,85.11627 -46.7889,2.36884 -87.80827,-7.03557 -123.350947,-45.31866 -23.381023,-29.45404 -33.374065,-58.45889 -33.978176,-98.71887 -0.147139,-27.54257 1.129873,-56.25518 24.35388,-97.84867 20.677803,-32.04324 49.580513,-51.06727 82.936853,-58.31115 32.5774,-3.45071 63.40482,3.75537 89.23677,28.16538 14.95999,17.19 24.2439,39.64313 25.70997,64.17227 0.18524,8.56531 0.27366,14.72846 2.5846,22.88436 5.65259,6.97421 9.45543,12.08671 17.64162,13.71263 10.6054,0.11371 15.14979,-1.22023 22.81081,-9.70185 6.14045,-8.92741 6.65396,-16.65896 6.76757,-27.91033 0.43393,-23.62523 -2.8302,-47.37925 -12.39588,-68.27806 -6.50388,-14.81422 -13.99019,-27.31807 -24.07336,-39.10747 -33.53686,-37.1191 -73.31436,-52.45641 -118.92143,-51.50983 -60.64417,2.55398 -102.235451,37.31229 -129.068553,72.69388 -18.113869,22.47334 -29.953388,50.19291 -38.4927175,79.35014 -13.4480257,52.88061 -6.49537083,115.495 14.5511445,163.89632 24.048657,51.66249 60.191156,88.62933 108.578796,105.29013 20.80542,7.6058 42.04991,12.8671 63.89238,13.1916 28.11795,1.4836 37.05795,-1.9404 55.47965,-4.4301 84.38415,-16.4636 155.04308,-77.79237 204.49385,-158.01016 13.39404,-21.99393 29.73177,-49.9024 45.61312,-89.16698 2.47873,-6.21847 4.96183,-12.42439 7.54551,-18.58354 15.09708,-35.80791 25.47177,-72.58763 38.05061,-118.01252 3.17079,-10.58386 5.6313,-21.40274 7.41373,-32.41621 71.26894,0.64919 35.95966,0.52159 81.1939,0.75028 7.7652,0.0657 15.57183,0.6487 23.27842,-0.75002 4.35301,-7.68146 4.35301,-7.68146 6.12993,-13.40256 l 1.62387,-6.44132 c 2.75298,-10.67246 3.92814,-20.02569 5.30523,-31.36599 H 563.39505 c 2.11745,-8.71857 4.25537,-17.43855 6.00239,-26.27003 15.53027,-85.07327 31.23435,-176.86835 76.70487,-247.7023 40.79223,5.55737 81.49811,10.68338 122.61554,11.17712 27.27934,0.11786 65.65561,-0.0364 112.60447,-13.71255 39.79382,-12.48164 84.73186,-31.72307 113.02105,-76.8397 15.81933,-24.09772 20.20103,-38.14072 23.94163,-51.20977 3.956,-13.49646 7.8532,-24.28401 4.353,-38.40734 -4.8992,-13.165239 -10.0996,-15.355907 -17.412,-17.923417 -9.63568,-1.821791 -13.83384,-0.951431 -22.3093,4.800918 -12.50475,13.665619 -3.46894,18.865929 -21.31445,49.299419 -14.50728,27.73634 -113.32277,69.22357 -315.49994,40.63774 30.15405,-8.11936 55.90301,-17.67299 86.40526,-9.08778 9.344,2.97471 28.901,9.36131 38.50613,10.77378 0.50134,-9.85834 -9.79896,-16.7211 -13.90956,-24.73038 6.49624,-4.45002 9.85157,0.68181 20.59982,-10.17894 -12.68391,-3.85271 -36.17072,-8.40159 -49.2685,-8.44464 -21.29028,-0.82702 -42.16735,3.25413 -62.5703,10.17701 -3.04607,1.08748 -6.09928,2.15578 -9.15238,3.21561 -6.67415,2.31159 -13.34143,4.6364 -19.9839,7.07136 -22.19188,8.14874 -40.70747,14.03092 -64.1723,12.03382 l -10.02116,-0.83403 c 16.26737,0 40.80478,-10.21931 55.88019,-17.17094 l 5.3775,-2.5905 C 649.9723,143.3206 674.30169,130.03557 693.8409,105.15574 706.29614,87.013148 711.18195,71.211448 710.24123,47.694793 708.26748,32.253741 703.63884,22.163387 693.68788,11.847949 683.87212,3.8521228 673.15005,0.05090462 662.04352,6.5892741e-4 Z M 658.8,39.238004 c 5.83872,0.01789 11.71442,1.581517 17.50133,5.276023 17.58547,11.977425 6.98421,35.781437 -1.90445,51.209783 -21.6266,28.80934 -56.0505,46.96784 -86.10803,60.49155 -8.10382,3.67876 -15.26799,6.8647 -33.59982,8.96171 5.92453,-43.2282 38.68063,-84.691756 67.47171,-109.780961 C 633.2909,46.646636 645.95485,39.198349 658.8,39.238004 Z M 519.56735,153.8149 c 2.47408,3.68071 2.47408,3.68071 4.65057,11.36217 C 337.35319,157.69751 379.77229,95.119723 387.098,90.922893 394.97395,84.148163 447.95584,68.93295 519.56735,153.8149 Z"
     style="display:inline;fill:#4b9372;stroke-width:2.3607"
     id="path5"
     sodipodi:nodetypes="ccccccccccccccccccccccccccccccccccccccccccccccccccccccccccccccccccccccccccccccccccccccccccccccccccscccccscccc" />
</svg>
